<svg class="animated" id="freepik_stories-police-car" xmlns="http://www.w3.org/2000/svg" viewBox="0 0 500 500" version="1.1" xmlns:xlink="http://www.w3.org/1999/xlink" xmlns:svgjs="http://svgjs.com/svgjs"><style>svg#freepik_stories-police-car:not(.animated) .animable {opacity: 0;}svg#freepik_stories-police-car.animated #freepik--Car--inject-1 {animation: 2.8s 1 forwards cubic-bezier(.36,-0.01,.5,1.38) fadeIn,1.5s Infinite  linear heartbeat;animation-delay: 0s,2.8s;}svg#freepik_stories-police-car.animated #freepik--Character--inject-1 {animation: 1s 1 forwards cubic-bezier(.36,-0.01,.5,1.38) lightSpeedRight;animation-delay: 0s;}            @keyframes fadeIn {                0% {                    opacity: 0;                }                100% {                    opacity: 1;                }            }                    @keyframes heartbeat {                0% {                    transform: scale(1);                }                10% {                    transform: scale(1.1);                }                30% {                    transform: scale(1);                }                40% {                    transform: scale(1);                }                50% {                    transform: scale(1.1);                }                60% {                    transform: scale(1);                }                100% {                    transform: scale(1);                }            }                    @keyframes lightSpeedRight {              from {                transform: translate3d(50%, 0, 0) skewX(-20deg);                opacity: 0;              }              60% {                transform: skewX(10deg);                opacity: 1;              }              80% {                transform: skewX(-2deg);              }              to {                opacity: 1;                transform: translate3d(0, 0, 0);              }            }        </style><g id="freepik--Shadow--inject-1" class="animable" style="transform-origin: 250px 415.69px;"><ellipse id="freepik--path--inject-1" cx="250" cy="415.69" rx="193.89" ry="11.32" style="fill: rgb(245, 245, 245); transform-origin: 250px 415.69px;" class="animable"></ellipse></g><g id="freepik--Car--inject-1" class="animable animator-active" style="transform-origin: 203.006px 309.91px;"><rect x="107.76" y="372.73" width="27.53" height="38.33" rx="9.63" style="fill: rgb(38, 50, 56); transform-origin: 121.525px 391.895px;" id="electdgvlnfyg" class="animable"></rect><g id="elmh4wvoa6ack"><rect x="107.76" y="372.73" width="27.53" height="38.33" rx="9.63" style="opacity: 0.8; transform-origin: 121.525px 391.895px;" class="animable"></rect></g><rect x="271.11" y="372.73" width="27.53" height="38.33" rx="9.63" style="fill: rgb(38, 50, 56); transform-origin: 284.875px 391.895px;" id="elpx7mcptxjp9" class="animable"></rect><g id="elepclmljj50a"><rect x="271.11" y="372.73" width="27.53" height="38.33" rx="9.63" style="opacity: 0.8; transform-origin: 284.875px 391.895px;" class="animable"></rect></g><polygon points="149.99 228.07 146.27 228.07 149.89 220.21 156.68 220.21 149.99 228.07" style="fill: rgb(38, 50, 56); transform-origin: 151.475px 224.14px;" id="el9r3epzo3cho" class="animable"></polygon><polygon points="255.66 228.07 259.38 228.07 255.76 220.21 248.98 220.21 255.66 228.07" style="fill: rgb(38, 50, 56); transform-origin: 254.18px 224.14px;" id="elqiynly3ay8" class="animable"></polygon><rect x="278.88" y="373.73" width="27.53" height="38.33" rx="9.63" style="fill: rgb(38, 50, 56); transform-origin: 292.645px 392.895px;" id="el1cfll13lb1x" class="animable"></rect><g id="elptd1oe0323i"><g style="opacity: 0.5; transform-origin: 292.64px 403.89px;" class="animable"><path d="M292.64,408.75h0a1.53,1.53,0,0,1-1.53-1.53v-6.65a1.53,1.53,0,0,1,1.53-1.54h0a1.53,1.53,0,0,1,1.53,1.54v6.65A1.53,1.53,0,0,1,292.64,408.75Z" id="elt2f49poeug" class="animable" style="transform-origin: 292.64px 403.89px;"></path></g></g><g id="elplvk3fa11u"><g style="opacity: 0.5; transform-origin: 292.64px 391.29px;" class="animable"><path d="M292.64,394.43h0a1.52,1.52,0,0,1-1.53-1.53v-3.22a1.52,1.52,0,0,1,1.53-1.53h0a1.52,1.52,0,0,1,1.53,1.53v3.22A1.52,1.52,0,0,1,292.64,394.43Z" id="el5zav6dedqgx" class="animable" style="transform-origin: 292.64px 391.29px;"></path></g></g><g id="el4rdb8s641pu"><g style="opacity: 0.5; transform-origin: 285.755px 406.96px;" class="animable"><path d="M285.76,408.75h0a1.54,1.54,0,0,1-1.54-1.53v-.52a1.53,1.53,0,0,1,1.54-1.53h0a1.53,1.53,0,0,1,1.53,1.53v.52A1.54,1.54,0,0,1,285.76,408.75Z" id="el6izcwqbdlpf" class="animable" style="transform-origin: 285.755px 406.96px;"></path></g></g><g id="elusi53je3bl"><g style="opacity: 0.5; transform-origin: 285.755px 394.835px;" class="animable"><path d="M285.76,401.52h0a1.53,1.53,0,0,1-1.54-1.53V389.68a1.53,1.53,0,0,1,1.54-1.53h0a1.53,1.53,0,0,1,1.53,1.53V400A1.53,1.53,0,0,1,285.76,401.52Z" id="elxrgsvvzch6k" class="animable" style="transform-origin: 285.755px 394.835px;"></path></g></g><g id="elg098svm3qwm"><g style="opacity: 0.5; transform-origin: 299.52px 406.96px;" class="animable"><path d="M299.52,408.75h0a1.53,1.53,0,0,1-1.53-1.53v-.52a1.52,1.52,0,0,1,1.53-1.53h0a1.52,1.52,0,0,1,1.53,1.53v.52A1.53,1.53,0,0,1,299.52,408.75Z" id="elknqb5b2wd5" class="animable" style="transform-origin: 299.52px 406.96px;"></path></g></g><g id="elp18o8du7g6"><g style="opacity: 0.5; transform-origin: 299.53px 394.835px;" class="animable"><path d="M299.52,401.52h0A1.52,1.52,0,0,1,298,400V389.68a1.52,1.52,0,0,1,1.53-1.53h0a1.52,1.52,0,0,1,1.53,1.53V400A1.52,1.52,0,0,1,299.52,401.52Z" id="elph5rr84x62n" class="animable" style="transform-origin: 299.53px 394.835px;"></path></g></g><rect x="99" y="373.73" width="27.53" height="38.33" rx="9.63" style="fill: rgb(38, 50, 56); transform-origin: 112.765px 392.895px;" id="elpdlbkarefr" class="animable"></rect><g id="elxllpwctl8eh"><g style="opacity: 0.5; transform-origin: 112.765px 403.89px;" class="animable"><path d="M112.76,408.75h0a1.54,1.54,0,0,1-1.53-1.53v-6.65a1.54,1.54,0,0,1,1.53-1.54h0a1.54,1.54,0,0,1,1.54,1.54v6.65A1.54,1.54,0,0,1,112.76,408.75Z" id="eluwx5hlvsn0k" class="animable" style="transform-origin: 112.765px 403.89px;"></path></g></g><g id="el4mzj3u5d5w"><g style="opacity: 0.5; transform-origin: 112.765px 391.29px;" class="animable"><path d="M112.76,394.43h0a1.53,1.53,0,0,1-1.53-1.53v-3.22a1.53,1.53,0,0,1,1.53-1.53h0a1.53,1.53,0,0,1,1.54,1.53v3.22A1.53,1.53,0,0,1,112.76,394.43Z" id="eljillhz056mi" class="animable" style="transform-origin: 112.765px 391.29px;"></path></g></g><g id="elbh9ao1ipp1k"><g style="opacity: 0.5; transform-origin: 105.885px 406.96px;" class="animable"><path d="M105.88,408.75h0a1.54,1.54,0,0,1-1.53-1.53v-.52a1.53,1.53,0,0,1,1.53-1.53h0a1.53,1.53,0,0,1,1.54,1.53v.52A1.54,1.54,0,0,1,105.88,408.75Z" id="elnukhhfzadj" class="animable" style="transform-origin: 105.885px 406.96px;"></path></g></g><g id="el9m92h1j6a54"><g style="opacity: 0.5; transform-origin: 105.885px 394.835px;" class="animable"><path d="M105.88,401.52h0a1.53,1.53,0,0,1-1.53-1.53V389.68a1.53,1.53,0,0,1,1.53-1.53h0a1.53,1.53,0,0,1,1.54,1.53V400A1.53,1.53,0,0,1,105.88,401.52Z" id="elq3d1k3v2s3q" class="animable" style="transform-origin: 105.885px 394.835px;"></path></g></g><g id="elqc0qeiy5sig"><g style="opacity: 0.5; transform-origin: 119.645px 406.96px;" class="animable"><path d="M119.65,408.75h0a1.54,1.54,0,0,1-1.54-1.53v-.52a1.53,1.53,0,0,1,1.54-1.53h0a1.53,1.53,0,0,1,1.53,1.53v.52A1.54,1.54,0,0,1,119.65,408.75Z" id="elfy105vl1ybu" class="animable" style="transform-origin: 119.645px 406.96px;"></path></g></g><g id="elm6o7pllajo"><g style="opacity: 0.5; transform-origin: 119.645px 394.835px;" class="animable"><path d="M119.65,401.52h0a1.53,1.53,0,0,1-1.54-1.53V389.68a1.53,1.53,0,0,1,1.54-1.53h0a1.53,1.53,0,0,1,1.53,1.53V400A1.53,1.53,0,0,1,119.65,401.52Z" id="el0zynjv22nnw" class="animable" style="transform-origin: 119.645px 394.835px;"></path></g></g><path d="M288.19,282.89H117.35L99,318.19a19.21,19.21,0,0,0-2.17,8.89v58.35a4.4,4.4,0,0,0,4.4,4.4H304.41a4.4,4.4,0,0,0,4.4-4.4V327.1a19.29,19.29,0,0,0-2.19-8.93Z" style="fill: rgb(64, 123, 255); transform-origin: 202.82px 336.36px;" id="elx93zccw7nxe" class="animable"></path><g id="el608cto065al"><path d="M308.81,385.43V343.59a13.49,13.49,0,0,1-13.5,13.5h-185a13.49,13.49,0,0,1-13.5-13.5v41.84a4.4,4.4,0,0,0,4.4,4.4H304.41A4.4,4.4,0,0,0,308.81,385.43Z" style="opacity: 0.3; transform-origin: 202.81px 366.71px;" class="animable"></path></g><path d="M286.55,281.74h8.23V270.13a22.75,22.75,0,0,1,7-1c7.64,0,13.83,3.43,13.83,7.66s-6.19,7.67-13.83,7.67a24.29,24.29,0,0,1-4.27-.39l-7.71,3.07Z" style="fill: rgb(64, 123, 255); transform-origin: 301.08px 278.134px;" id="els240pk0mjj" class="animable"></path><g id="eladho9rhg95"><path d="M294.78,277.92v-7.79a22.75,22.75,0,0,1,7-1c7.64,0,13.83,3.43,13.83,7.66a4.23,4.23,0,0,1-.05.5,128.68,128.68,0,0,1-14.81.78C298.66,278,296.68,278,294.78,277.92Z" style="fill: rgb(255, 255, 255); opacity: 0.5; transform-origin: 305.195px 273.6px;" class="animable"></path></g><path d="M119.46,281.74h-8.23V270.13a22.75,22.75,0,0,0-7-1c-7.63,0-13.82,3.43-13.82,7.66s6.19,7.67,13.82,7.67a24.2,24.2,0,0,0,4.27-.39l7.72,3.07Z" style="fill: rgb(64, 123, 255); transform-origin: 104.935px 278.134px;" id="elsfgqvqiw9g" class="animable"></path><g id="elqqkl9m44ut"><path d="M111.23,277.92v-7.79a22.75,22.75,0,0,0-7-1c-7.63,0-13.82,3.43-13.82,7.66a4.21,4.21,0,0,0,0,.5,128.81,128.81,0,0,0,14.81.78C107.35,278,109.34,278,111.23,277.92Z" style="fill: rgb(255, 255, 255); opacity: 0.5; transform-origin: 100.816px 273.6px;" class="animable"></path></g><path d="M260.16,228.07H145.6a9.23,9.23,0,0,0-8.58,5.84l-19.37,49H288l-19.26-49A9.23,9.23,0,0,0,260.16,228.07Z" style="fill: rgb(38, 50, 56); transform-origin: 202.825px 255.49px;" id="elpu7b99deaz" class="animable"></path><g id="elcewhpphhr5"><path d="M260.16,228.07H145.6a9.23,9.23,0,0,0-8.58,5.84l-19.37,49H288l-19.26-49A9.23,9.23,0,0,0,260.16,228.07Z" style="fill: rgb(255, 255, 255); opacity: 0.8; transform-origin: 202.825px 255.49px;" class="animable"></path></g><path d="M284.88,281.74l-17-43.21a5,5,0,0,0-4.66-3.18H142.53a5,5,0,0,0-4.66,3.17l-17.1,43.22Z" style="fill: rgb(38, 50, 56); transform-origin: 202.825px 258.545px;" id="elw7ct2l2trfd" class="animable"></path><g id="eloyd5diou97"><path d="M284.88,281.74l-17-43.21a5,5,0,0,0-4.66-3.18H142.53a5,5,0,0,0-4.66,3.17l-17.1,43.22Z" style="fill: rgb(255, 255, 255); opacity: 0.2; transform-origin: 202.825px 258.545px;" class="animable"></path></g><rect x="137.47" y="207.76" width="130.71" height="14.57" rx="5.31" style="fill: rgb(38, 50, 56); transform-origin: 202.825px 215.045px;" id="elb9dkjyl2hfp" class="animable"></rect><g id="elu66ihhgy6tl"><rect x="137.47" y="207.76" width="130.71" height="14.57" rx="5.31" style="fill: rgb(255, 255, 255); opacity: 0.5; transform-origin: 202.825px 215.045px;" class="animable"></rect></g><rect x="140.54" y="210.82" width="14.03" height="8.43" rx="2.93" style="fill: rgb(64, 123, 255); transform-origin: 147.555px 215.035px;" id="el2dt6p9uyczx" class="animable"></rect><rect x="156.27" y="210.82" width="14.03" height="8.43" rx="2.93" style="fill: rgb(64, 123, 255); transform-origin: 163.285px 215.035px;" id="el7uu8f985qp4" class="animable"></rect><rect x="172.01" y="210.82" width="14.03" height="8.43" rx="2.93" style="fill: rgb(64, 123, 255); transform-origin: 179.025px 215.035px;" id="el4l0ufbh7evt" class="animable"></rect><rect x="187.74" y="210.82" width="14.03" height="8.43" rx="2.93" style="fill: rgb(64, 123, 255); transform-origin: 194.755px 215.035px;" id="el6kqiw188suu" class="animable"></rect><rect x="203.88" y="210.82" width="14.03" height="8.43" rx="2.93" style="fill: rgb(64, 123, 255); transform-origin: 210.895px 215.035px;" id="el42ja7k1ixxb" class="animable"></rect><g id="el17hdelk6gjm"><rect x="187.74" y="210.82" width="14.03" height="8.43" rx="2.93" style="fill: rgb(255, 255, 255); opacity: 0.7; transform-origin: 194.755px 215.035px;" class="animable"></rect></g><g id="el5nyzzyplb2a"><rect x="203.88" y="210.82" width="14.03" height="8.43" rx="2.93" style="fill: rgb(255, 255, 255); opacity: 0.7; transform-origin: 210.895px 215.035px;" class="animable"></rect></g><rect x="219.61" y="210.82" width="14.03" height="8.43" rx="2.93" style="fill: rgb(64, 123, 255); transform-origin: 226.625px 215.035px;" id="elji34e5o5urb" class="animable"></rect><rect x="235.35" y="210.82" width="14.03" height="8.43" rx="2.93" style="fill: rgb(64, 123, 255); transform-origin: 242.365px 215.035px;" id="elaob6jfkfd5d" class="animable"></rect><rect x="251.08" y="210.82" width="14.03" height="8.43" rx="2.93" style="fill: rgb(64, 123, 255); transform-origin: 258.095px 215.035px;" id="el0maw5k0mvmzh" class="animable"></rect><g id="elzbd4j41j0wd"><g style="opacity: 0.4; transform-origin: 242.36px 215.035px;" class="animable"><rect x="219.61" y="210.82" width="14.03" height="8.43" rx="2.93" id="eltgvsyk765pd" class="animable" style="transform-origin: 226.625px 215.035px;"></rect><rect x="235.35" y="210.82" width="14.03" height="8.43" rx="2.93" id="elbr804phteeg" class="animable" style="transform-origin: 242.365px 215.035px;"></rect><rect x="251.08" y="210.82" width="14.03" height="8.43" rx="2.93" id="elx7yfulgtiqh" class="animable" style="transform-origin: 258.095px 215.035px;"></rect></g></g><g id="el2enu0gozw4u"><path d="M143.41,331.43l-30-7.09a6.65,6.65,0,0,1-5-7.72L110.2,307a6.65,6.65,0,0,1,9.34-4.8l19.93,9.25a12.25,12.25,0,0,1,6.76,8.23l1.74,7.15A3.8,3.8,0,0,1,143.41,331.43Z" style="fill: rgb(255, 255, 255); opacity: 0.5; transform-origin: 128.185px 316.555px;" class="animable"></path></g><g id="el12ksziagpj1o"><circle cx="135.52" cy="320.07" r="7.41" style="fill: rgb(255, 255, 255); opacity: 0.5; transform-origin: 135.52px 320.07px;" class="animable"></circle></g><g id="el7dvt9y4p8hp"><g style="opacity: 0.9; transform-origin: 137.23px 315.55px;" class="animable"><path d="M137.22,316.77a4.33,4.33,0,0,0-.85-.31,1,1,0,0,1-.85-1v-.25a1,1,0,0,1,1.25-1,5.58,5.58,0,0,1,1.61.59,1,1,0,0,1,.3,1.57l-.17.2A1,1,0,0,1,137.22,316.77Z" style="fill: rgb(255, 255, 255); transform-origin: 137.23px 315.55px;" id="elcxre3p3z5c" class="animable"></path></g></g><g id="elm4pkysq9csp"><g style="opacity: 0.9; transform-origin: 135.51px 323.07px;" class="animable"><path d="M135.52,326.07a6,6,0,0,1-5.87-4.75,1,1,0,0,1,1-1.25h.25a1,1,0,0,1,1,.85,3.71,3.71,0,0,0,7.22,0,1,1,0,0,1,1-.85h.25a1,1,0,0,1,1,1.25A6,6,0,0,1,135.52,326.07Z" style="fill: rgb(255, 255, 255); transform-origin: 135.51px 323.07px;" id="elxny368lmeg" class="animable"></path></g></g><g id="elqblmox12lbc"><circle cx="118.91" cy="313.41" r="7.41" style="fill: rgb(255, 255, 255); opacity: 0.5; transform-origin: 118.91px 313.41px; transform: rotate(-76.72deg);" class="animable"></circle></g><g id="ell14891y3in"><g style="opacity: 0.9; transform-origin: 120.623px 308.89px;" class="animable"><path d="M120.61,310.11a3.68,3.68,0,0,0-.86-.31,1.05,1.05,0,0,1-.84-1v-.25a1,1,0,0,1,1.25-1,6.23,6.23,0,0,1,1.61.59,1,1,0,0,1,.3,1.58l-.17.19A1,1,0,0,1,120.61,310.11Z" style="fill: rgb(255, 255, 255); transform-origin: 120.623px 308.89px;" id="elvmrjbqr4dc8" class="animable"></path></g></g><g id="elfb7i4xlj5o7"><g style="opacity: 0.9; transform-origin: 118.9px 316.41px;" class="animable"><path d="M118.91,319.41a6,6,0,0,1-5.87-4.75,1,1,0,0,1,1-1.25h.25a1,1,0,0,1,1,.84,3.71,3.71,0,0,0,7.22,0,1,1,0,0,1,1-.84h.25a1,1,0,0,1,1,1.25A6,6,0,0,1,118.91,319.41Z" style="fill: rgb(255, 255, 255); transform-origin: 118.9px 316.41px;" id="elosq9kplqr5n" class="animable"></path></g></g><path d="M162,323.07a4,4,0,0,0-3.6,5.84c1.66,3.3,3.91,7,6.09,8.41,16.23,10.18,60.41,10.18,76.63,0,2.19-1.38,4.43-5.11,6.1-8.41a4,4,0,0,0-3.61-5.84Z" style="fill: rgb(38, 50, 56); transform-origin: 202.81px 334.012px;" id="eli2u7f6w7u5" class="animable"></path><g id="elabfzg0zsri4"><path d="M162,323.07a4,4,0,0,0-3.6,5.84c1.66,3.3,3.91,7,6.09,8.41,16.23,10.18,60.41,10.18,76.63,0,2.19-1.38,4.43-5.11,6.1-8.41a4,4,0,0,0-3.61-5.84Z" style="fill: rgb(255, 255, 255); opacity: 0.6; transform-origin: 202.81px 334.012px;" class="animable"></path></g><g id="eljmtl174iqio"><path d="M267.85,369.52a51.23,51.23,0,0,1,3.57,6.1,4.77,4.77,0,0,1-4.26,6.9H138.49a4.76,4.76,0,0,1-4.25-6.9,49.85,49.85,0,0,1,3.56-6.1,9.12,9.12,0,0,1,7.46-3.83H260.39A9.12,9.12,0,0,1,267.85,369.52Z" style="fill: rgb(255, 255, 255); opacity: 0.5; transform-origin: 202.827px 374.105px;" class="animable"></path></g><g id="el5o91jjsduqg"><rect x="171.15" y="347.28" width="63.34" height="15.33" style="fill: rgb(255, 255, 255); opacity: 0.8; transform-origin: 202.82px 354.945px;" class="animable"></rect></g><path d="M143.47,282.89c-2.23,2.64-3.26,8.05-1.91,12.84,2.29,8.17,5.39,17.42,8.41,20.82H255.68c3-3.4,6.12-12.65,8.41-20.82,1.35-4.79.32-10.2-1.91-12.84Z" style="fill: rgb(38, 50, 56); transform-origin: 202.825px 299.72px;" id="elbzs4jfag0h" class="animable"></path><g id="el62uy6i9pbit"><path d="M143.47,282.89c-2.23,2.64-3.26,8.05-1.91,12.84,2.29,8.17,5.39,17.42,8.41,20.82H255.68c3-3.4,6.12-12.65,8.41-20.82,1.35-4.79.32-10.2-1.91-12.84Z" style="fill: rgb(255, 255, 255); opacity: 0.8; transform-origin: 202.825px 299.72px;" class="animable"></path></g><path d="M175.91,293.73a2.38,2.38,0,0,1,1,1.92,5.93,5.93,0,0,1-.84,3,9.57,9.57,0,0,1-2.38,2.93,10.68,10.68,0,0,1-3.47,1.92,12.8,12.8,0,0,1-4.15.67h-3.28l-3,4.21h-4l12-15.27h5.65A4.24,4.24,0,0,1,175.91,293.73Zm-5.32,6.82a5.34,5.34,0,0,0,2-1.95c.51-.86.64-1.52.42-2s-.82-.68-1.78-.68h-2.62l-3.8,5.3h2.91A5.89,5.89,0,0,0,170.59,300.55Z" style="fill: rgb(38, 50, 56); transform-origin: 166.35px 300.741px;" id="elvl7271yrgl" class="animable"></path><path d="M177.85,307.57a4,4,0,0,1-2-2.83,6.76,6.76,0,0,1,.85-4.05,14.93,14.93,0,0,1,3-4,15.51,15.51,0,0,1,3.95-2.83,9.2,9.2,0,0,1,4.08-1,5.51,5.51,0,0,1,3.37,1,5.81,5.81,0,0,1,2,2.83,7.72,7.72,0,0,1,.28,4,8.35,8.35,0,0,1-1.91,4.05,10.59,10.59,0,0,1-3.95,2.83,13.26,13.26,0,0,1-5.18,1A8.82,8.82,0,0,1,177.85,307.57Zm8.37-2.61a6.53,6.53,0,0,0,2.31-1.74,6.13,6.13,0,0,0,1.28-2.53,5,5,0,0,0,0-2.53,3.13,3.13,0,0,0-1.12-1.73,3.24,3.24,0,0,0-2-.63,5.32,5.32,0,0,0-2.45.63,8.32,8.32,0,0,0-2.31,1.73,8.79,8.79,0,0,0-1.68,2.53,4.67,4.67,0,0,0-.44,2.53,2.51,2.51,0,0,0,1.13,1.74,4.38,4.38,0,0,0,2.43.62A6.87,6.87,0,0,0,186.22,305Z" style="fill: rgb(38, 50, 56); transform-origin: 184.668px 300.718px;" id="el85hplf0e98m" class="animable"></path><path d="M197.05,293.06h3c-.31,4.95-.47,7.43-.79,12.39h8.35c.1,1.15.14,1.73.24,2.88H195.05Z" style="fill: rgb(38, 50, 56); transform-origin: 201.45px 300.695px;" id="elpju81gp603" class="animable"></path><path d="M208.32,293.06h3l2.85,15.27h-4.05C209.41,302.22,209.05,299.17,208.32,293.06Z" style="fill: rgb(38, 50, 56); transform-origin: 211.245px 300.695px;" id="elk9c4pq9k4q9" class="animable"></path><path d="M221.63,307.58a11.29,11.29,0,0,1-4.08-2.82,9.09,9.09,0,0,1-2.13-4.07,7.86,7.86,0,0,1,0-4.07,5.31,5.31,0,0,1,1.85-2.81,5.17,5.17,0,0,1,3.29-1,8.93,8.93,0,0,1,3.37.7,14.1,14.1,0,0,1,3.36,2c-.39.84-.6,1.26-1.06,2.09A7.13,7.13,0,0,0,222,295.8a3.24,3.24,0,0,0-2.08.63,2.84,2.84,0,0,0-1.05,1.73,5.11,5.11,0,0,0,.18,2.53,6.57,6.57,0,0,0,1.43,2.53,7,7,0,0,0,2.42,1.74,7.48,7.48,0,0,0,3,.62c1.67,0,2.82-.6,3.34-1.81,1.36.84,2,1.26,3.48,2.09a3.7,3.7,0,0,1-2,2,9.12,9.12,0,0,1-3.82.7A13.66,13.66,0,0,1,221.63,307.58Z" style="fill: rgb(38, 50, 56); transform-origin: 223.936px 300.685px;" id="elrg873mfknh" class="animable"></path><path d="M248,305.49l2.22,2.84H236.65l-8.54-15.27H238l2.21,2.83h-7.3l2.07,3.32h6.89L244,302h-7.27l2.22,3.53Z" style="fill: rgb(38, 50, 56); transform-origin: 239.165px 300.695px;" id="elhvesxdcd37l" class="animable"></path><path d="M106.85,373.12V359a1.91,1.91,0,0,1,1.91-1.91h14.12a1.91,1.91,0,0,1,1.36,3.26l-14.12,14.12A1.91,1.91,0,0,1,106.85,373.12Z" style="fill: rgb(38, 50, 56); transform-origin: 115.824px 366.064px;" id="elqox57fowt9" class="animable"></path><g id="elhrurfvgzzqi"><path d="M106.85,373.12V359a1.91,1.91,0,0,1,1.91-1.91h14.12a1.91,1.91,0,0,1,1.36,3.26l-14.12,14.12A1.91,1.91,0,0,1,106.85,373.12Z" style="fill: rgb(255, 255, 255); opacity: 0.5; transform-origin: 115.824px 366.064px;" class="animable"></path></g><g id="elx4a2mcbbawe"><circle cx="115.83" cy="366.06" r="7.41" style="fill: rgb(64, 123, 255); transform-origin: 115.83px 366.06px; transform: rotate(-76.72deg);" class="animable"></circle></g><g id="elav0ujfekkhj"><circle cx="115.83" cy="366.06" r="7.41" style="fill: rgb(255, 255, 255); opacity: 0.5; transform-origin: 115.83px 366.06px; transform: rotate(-76.72deg);" class="animable"></circle></g><g id="elr5c4a54fx1"><g style="opacity: 0.8; transform-origin: 117.538px 361.538px;" class="animable"><path d="M117.52,362.77a3.63,3.63,0,0,0-.85-.32,1,1,0,0,1-.84-1v-.26a1,1,0,0,1,1.25-1,6,6,0,0,1,1.6.59,1,1,0,0,1,.3,1.58l-.16.19A1,1,0,0,1,117.52,362.77Z" style="fill: rgb(255, 255, 255); transform-origin: 117.538px 361.538px;" id="el5ygl7oo1hcq" class="animable"></path></g></g><g id="elmrvxpkxkdx"><g style="opacity: 0.8; transform-origin: 115.805px 369.065px;" class="animable"><path d="M115.83,372.07a6,6,0,0,1-5.88-4.75,1,1,0,0,1,1-1.26h.25a1.06,1.06,0,0,1,1,.85,3.7,3.7,0,0,0,7.21,0,1.07,1.07,0,0,1,1-.85h.25a1,1,0,0,1,1,1.26A6,6,0,0,1,115.83,372.07Z" style="fill: rgb(255, 255, 255); transform-origin: 115.805px 369.065px;" id="eljp6f15j5r2" class="animable"></path></g></g><path d="M299.8,373.12V359a1.91,1.91,0,0,0-1.91-1.91H283.77a1.91,1.91,0,0,0-1.35,3.26l14.12,14.12A1.91,1.91,0,0,0,299.8,373.12Z" style="fill: rgb(38, 50, 56); transform-origin: 290.831px 366.059px;" id="elilf3ubqkemh" class="animable"></path><g id="el4llzb4zbfg7"><path d="M299.8,373.12V359a1.91,1.91,0,0,0-1.91-1.91H283.77a1.91,1.91,0,0,0-1.35,3.26l14.12,14.12A1.91,1.91,0,0,0,299.8,373.12Z" style="fill: rgb(255, 255, 255); opacity: 0.5; transform-origin: 290.831px 366.059px;" class="animable"></path></g><g id="eluzs89n4yutc"><circle cx="290.83" cy="366.06" r="7.41" style="fill: rgb(64, 123, 255); transform-origin: 290.83px 366.06px; transform: rotate(-67.5deg);" class="animable"></circle></g><g id="ely9r7fefw8nm"><circle cx="290.83" cy="366.06" r="7.41" style="fill: rgb(255, 255, 255); opacity: 0.5; transform-origin: 290.83px 366.06px; transform: rotate(-67.5deg);" class="animable"></circle></g><g id="ela99kui3o1vf"><g style="opacity: 0.8; transform-origin: 289.117px 361.537px;" class="animable"><path d="M289.13,362.77a3.63,3.63,0,0,1,.85-.32,1.05,1.05,0,0,0,.85-1v-.26a1,1,0,0,0-1.26-1,6,6,0,0,0-1.6.59,1,1,0,0,0-.3,1.58l.16.19A1,1,0,0,0,289.13,362.77Z" style="fill: rgb(255, 255, 255); transform-origin: 289.117px 361.537px;" id="elnvoftxot6bd" class="animable"></path></g></g><g id="el5bgjm614p0o"><g style="opacity: 0.8; transform-origin: 290.85px 369.065px;" class="animable"><path d="M290.83,372.07a6,6,0,0,0,5.87-4.75,1,1,0,0,0-1-1.26h-.25a1.07,1.07,0,0,0-1,.85,3.7,3.7,0,0,1-7.21,0,1.06,1.06,0,0,0-1-.85H286a1,1,0,0,0-1,1.26A6,6,0,0,0,290.83,372.07Z" style="fill: rgb(255, 255, 255); transform-origin: 290.85px 369.065px;" id="elvwdiarv3aza" class="animable"></path></g></g><g id="elr99wd27mzu"><path d="M262.24,331.43l30-7.09a6.66,6.66,0,0,0,5-7.72L295.45,307a6.65,6.65,0,0,0-9.34-4.8l-19.93,9.25a12.25,12.25,0,0,0-6.76,8.23l-1.74,7.15A3.8,3.8,0,0,0,262.24,331.43Z" style="fill: rgb(255, 255, 255); opacity: 0.5; transform-origin: 277.464px 316.555px;" class="animable"></path></g><g id="el6jbfzbudgeo"><circle cx="270.13" cy="320.07" r="7.41" style="fill: rgb(255, 255, 255); opacity: 0.5; transform-origin: 270.13px 320.07px;" class="animable"></circle></g><g id="el70tz59rtn04"><g style="opacity: 0.9; transform-origin: 268.42px 315.55px;" class="animable"><path d="M268.43,316.77a4.19,4.19,0,0,1,.86-.31,1,1,0,0,0,.84-1v-.25a1,1,0,0,0-1.25-1,5.58,5.58,0,0,0-1.61.59,1,1,0,0,0-.3,1.57l.17.2A1,1,0,0,0,268.43,316.77Z" style="fill: rgb(255, 255, 255); transform-origin: 268.42px 315.55px;" id="el7yumj0tqh8i" class="animable"></path></g></g><g id="elkcd68nhcpm"><g style="opacity: 0.9; transform-origin: 270.15px 323.07px;" class="animable"><path d="M270.13,326.07a6,6,0,0,0,5.88-4.75,1,1,0,0,0-1-1.25h-.25a1,1,0,0,0-1,.85,3.71,3.71,0,0,1-7.22,0,1,1,0,0,0-1-.85h-.25a1,1,0,0,0-1,1.25A6,6,0,0,0,270.13,326.07Z" style="fill: rgb(255, 255, 255); transform-origin: 270.15px 323.07px;" id="elglkf1ygt7an" class="animable"></path></g></g><g id="elb07b2mqaxwb"><circle cx="286.74" cy="313.41" r="7.41" style="fill: rgb(255, 255, 255); opacity: 0.5; transform-origin: 286.74px 313.41px; transform: rotate(-67.5deg);" class="animable"></circle></g><g id="elhe6cr40614a"><g style="opacity: 0.9; transform-origin: 284.987px 308.89px;" class="animable"><path d="M285,310.11a3.68,3.68,0,0,1,.86-.31,1.05,1.05,0,0,0,.84-1v-.25a1,1,0,0,0-1.25-1,6.23,6.23,0,0,0-1.61.59,1,1,0,0,0-.3,1.58l.17.19A1,1,0,0,0,285,310.11Z" style="fill: rgb(255, 255, 255); transform-origin: 284.987px 308.89px;" id="el1qh1kb86fiz" class="animable"></path></g></g><g id="elmfsmk46666a"><g style="opacity: 0.9; transform-origin: 286.76px 316.41px;" class="animable"><path d="M286.74,319.41a6,6,0,0,0,5.88-4.75,1,1,0,0,0-1-1.25h-.25a1,1,0,0,0-1,.84,3.71,3.71,0,0,1-7.22,0,1,1,0,0,0-1-.84h-.25a1,1,0,0,0-1,1.25A6,6,0,0,0,286.74,319.41Z" style="fill: rgb(255, 255, 255); transform-origin: 286.76px 316.41px;" id="eldymj13fpcjk" class="animable"></path></g></g><path d="M284.51,280.8c-7.53-2.51-17.09-5.52-21.65-6.22-13.64-2.07-51.91-.42-59.6-.06-7.68-.36-46-2-59.59.06-4.76.73-15,4-22.66,6.55l-.24.61H284.88Z" style="fill: rgb(38, 50, 56); transform-origin: 202.825px 277.648px;" id="elsbyb3hsww" class="animable"></path><g id="eldq204u1fys9"><g style="opacity: 0.2; transform-origin: 211.965px 258.545px;" class="animable"><polygon points="188.83 235.35 166.56 235.35 147.34 281.74 169.62 281.74 188.83 235.35" style="fill: rgb(255, 255, 255); transform-origin: 168.085px 258.545px;" id="elmevkvmuuo6c" class="animable"></polygon><path d="M276.59,260.67l-8.71-22.14a5,5,0,0,0-4.66-3.18H203.39l-19.21,46.39h83.68Z" style="fill: rgb(255, 255, 255); transform-origin: 230.385px 258.545px;" id="eldauyw0251vw" class="animable"></path></g></g><path d="M245.72,336.36V340H159.93v-3.68h-6.51v56a5.4,5.4,0,0,0,5.4,5.4h4.34a4.21,4.21,0,0,0,4.21-4.21v-3.72h-7.44v-20.6h85.79v20.6h-7.44v3.72a4.21,4.21,0,0,0,4.21,4.21h4.34a5.4,5.4,0,0,0,5.4-5.4v-56Zm-85.79,25.78v-15h85.79v15Z" style="fill: rgb(38, 50, 56); transform-origin: 202.825px 367.02px;" id="el1c20013dhi" class="animable"></path><g id="elzbels943krb"><path d="M245.72,336.36V340H159.93v-3.68h-6.51v56a5.4,5.4,0,0,0,5.4,5.4h4.34a4.21,4.21,0,0,0,4.21-4.21v-3.72h-7.44v-20.6h85.79v20.6h-7.44v3.72a4.21,4.21,0,0,0,4.21,4.21h4.34a5.4,5.4,0,0,0,5.4-5.4v-56Zm-85.79,25.78v-15h85.79v15Z" style="opacity: 0.6; transform-origin: 202.825px 367.02px;" class="animable"></path></g></g><g id="freepik--Character--inject-1" class="animable" style="transform-origin: 361.482px 293.086px;"><path d="M320.42,225.91a7.18,7.18,0,0,0,.73,2.42,6,6,0,0,0,2.66,2.63,6.61,6.61,0,0,0,3.22.65,9.84,9.84,0,0,0,2.15-.35l-.53.13a40.76,40.76,0,0,0,8.36-2.56c2.54-1,5-2.15,7.34-3.34s4.7-2.42,7-3.71,4.53-2.61,6.8-4.07a5,5,0,0,0-5.22-8.53l-.06,0c-2.12,1.24-4.32,2.56-6.51,3.8s-4.38,2.48-6.57,3.68-4.4,2.34-6.59,3.38c-1.57.73-3.2,1.45-4.66,2,0-.13,0-.26,0-.39.1-1.27.32-2.63.55-4s.53-2.8.78-4.15l0-.12a2.51,2.51,0,0,0-4.57-1.83,39.25,39.25,0,0,0-2.31,4.07,32.34,32.34,0,0,0-1.82,4.45,19.51,19.51,0,0,0-.65,2.56A11,11,0,0,0,320.42,225.91Zm8.26-1.38a1.44,1.44,0,0,1-.13-.48l.08.13C328.76,224.48,328.71,224.57,328.68,224.53Z" style="fill: rgb(255, 139, 123); transform-origin: 340.441px 220.032px;" id="elgvf6e16yig" class="animable"></path><path d="M325.08,215.13l-4.44-5.32,7.91-1.81s3.7,4.52.64,6.79Z" style="fill: rgb(255, 139, 123); transform-origin: 325.521px 211.565px;" id="el8rv7g8r256b" class="animable"></path><path d="M321.58,205.23l3.14-1.18a2.12,2.12,0,0,1,2.75,1.09l1.08,2.86-7.91,1.81-.41-2.47A2,2,0,0,1,321.58,205.23Z" style="fill: rgb(255, 139, 123); transform-origin: 324.384px 206.848px;" id="elzu16f56uo0a" class="animable"></path><path d="M358.5,205.47c-7.69,0-18.84,9.52-18.84,9.52l7,11.07a26.36,26.36,0,0,0,10.61-5.6C358.88,219.08,366.31,205.49,358.5,205.47Z" style="fill: rgb(64, 123, 255); transform-origin: 350.835px 215.765px;" id="elnd7dhr6l8se" class="animable"></path><g id="elipk8c66960r"><path d="M354.07,217.58c-4.89,4.13-7.6,5.49-9.09,5.87l1.65,2.61a26.36,26.36,0,0,0,10.61-5.6,6.06,6.06,0,0,0,.86-1.06C358.39,216.26,357.54,214.64,354.07,217.58Z" style="opacity: 0.2; transform-origin: 351.566px 221.048px;" class="animable"></path></g><polygon points="355.33 407.3 348.99 407.2 349.66 392.47 356 392.57 355.33 407.3" style="fill: rgb(255, 139, 123); transform-origin: 352.495px 399.885px;" id="ela8hxxfuu20g" class="animable"></polygon><path d="M348.74,405.28l6.93.11a.51.51,0,0,1,.51.44l.89,5.66a1,1,0,0,1-1,1.11c-2.49-.08-6.09-.28-9.23-.33-3.67-.06-3.31.09-7.61,0-2.61,0-3.16-2.68-2.06-2.9,5-1,5.55-1.06,10-3.64A3.08,3.08,0,0,1,348.74,405.28Z" style="fill: rgb(38, 50, 56); transform-origin: 346.855px 408.94px;" id="eljwk3gp0aup" class="animable"></path><path d="M347.62,405.84a.14.14,0,0,0,.1-.12.16.16,0,0,0-.09-.15c-.29-.16-2.89-1.49-3.64-1.07a.45.45,0,0,0-.24.39h0a.89.89,0,0,0,.31.74c.71.63,2.53.41,3.54.22Zm-3.43-1.1c.48-.16,1.88.39,2.9.89-1.39.21-2.44.13-2.84-.22a.6.6,0,0,1-.2-.49.17.17,0,0,1,.09-.16Z" style="fill: rgb(38, 50, 56); transform-origin: 345.734px 405.233px;" id="el6axx3z0zjfk" class="animable"></path><path d="M347.62,405.84l0,0a.16.16,0,0,0,.06-.13,4.51,4.51,0,0,0-1.07-2.46,1.11,1.11,0,0,0-.84-.27h0c-.42,0-.53.24-.55.41-.09.71,1.47,2.11,2.25,2.47A.2.2,0,0,0,347.62,405.84Zm-1.93-2.56.16,0h0a.82.82,0,0,1,.62.2,3.75,3.75,0,0,1,.9,2c-.8-.49-1.87-1.58-1.81-2C345.56,403.39,345.57,403.33,345.69,403.28Zm.14-.17h0Z" style="fill: rgb(38, 50, 56); transform-origin: 346.448px 404.421px;" id="el1uw3pn4ojmx" class="animable"></path><path d="M365,330c.36-11.22,3.05-20.78,4.73-28.31,3.31-14.82,6.33-24.59,4.4-35.24l-23.14.27s-3.13,48.31-3.4,64.09c-.28,16.44.24,69.83.24,69.83l10.22.15s4.8-27.93,5.9-49.39C364.35,343.46,364.81,336,365,330Z" style="fill: rgb(38, 50, 56); transform-origin: 361.121px 333.62px;" id="elqow6hkbcgtm" class="animable"></path><polygon points="347.29 399.47 347.49 403.61 358.37 404.05 358.82 399.91 347.29 399.47" style="fill: rgb(38, 50, 56); transform-origin: 353.055px 401.76px;" id="el3epnpd36arj" class="animable"></polygon><g id="el12j0n7mnnu2g"><path d="M369.73,301.64c.93-4.13,1.82-7.87,2.6-11.34l-2.73-9.71-4,2.44a138.73,138.73,0,0,0,.29,37.21C366.91,313.15,368.56,306.89,369.73,301.64Z" style="opacity: 0.4; transform-origin: 368.409px 300.415px;" class="animable"></path></g><polygon points="399.89 407.3 393.55 407.2 392.19 392.47 398.53 392.57 399.89 407.3" style="fill: rgb(255, 139, 123); transform-origin: 396.04px 399.885px;" id="ell6czo6jjbe" class="animable"></polygon><path d="M393.31,405.28l6.93.11a.51.51,0,0,1,.51.44l.89,5.66a1,1,0,0,1-1,1.11c-2.49-.08-6.1-.28-9.24-.33-3.67-.06-3.3.09-7.61,0-2.6,0-3.15-2.68-2.05-2.9,5-1,5.54-1.06,10-3.64A3.05,3.05,0,0,1,393.31,405.28Z" style="fill: rgb(38, 50, 56); transform-origin: 391.425px 408.94px;" id="elgbc43sl61kh" class="animable"></path><path d="M392.19,405.84a.12.12,0,0,0,.09-.12.14.14,0,0,0-.08-.15c-.29-.16-2.89-1.49-3.65-1.07a.44.44,0,0,0-.23.39h0a.88.88,0,0,0,.3.74c.72.63,2.53.41,3.55.22Zm-3.43-1.1c.47-.16,1.88.39,2.9.89-1.39.21-2.44.13-2.84-.22a.57.57,0,0,1-.2-.49.17.17,0,0,1,.09-.16Z" style="fill: rgb(38, 50, 56); transform-origin: 390.299px 405.233px;" id="eloiwlttqgkzi" class="animable"></path><path d="M392.19,405.84l0,0a.13.13,0,0,0,0-.13,4.47,4.47,0,0,0-1.06-2.46,1.13,1.13,0,0,0-.85-.27h0c-.41,0-.52.24-.54.41-.1.71,1.47,2.11,2.25,2.47A.2.2,0,0,0,392.19,405.84Zm-1.93-2.56.15,0h0a.8.8,0,0,1,.62.2,3.69,3.69,0,0,1,.91,2c-.8-.49-1.87-1.58-1.82-2C390.13,403.39,390.14,403.33,390.26,403.28Zm.13-.17Z" style="fill: rgb(38, 50, 56); transform-origin: 390.971px 404.426px;" id="elruk3hn4eep" class="animable"></path><polygon points="390.07 399.47 390.94 403.61 402.16 404.05 402.61 399.91 390.07 399.47" style="fill: rgb(38, 50, 56); transform-origin: 396.34px 401.76px;" id="el4rij5yhq5qp" class="animable"></polygon><path d="M391.56,330c-1.28-7.22-2.63-21.48-2.08-29.26,1-14.45,1.32-24.2-2.5-34.65l-23.3.63s4.74,45.09,10.11,64.09c5.59,19.76,17.62,69.83,17.62,69.83l10.24.15S400.23,369.4,395.4,347C394.06,340.67,392.32,334.24,391.56,330Z" style="fill: rgb(38, 50, 56); transform-origin: 382.665px 333.44px;" id="eltcfp2d4wjy" class="animable"></path><path d="M360.23,205.67a75.76,75.76,0,0,1,21.41-1.11,7.94,7.94,0,0,1,7.44,7c1.16,9,2.9,26.66-1.31,54.87-3.38,1.36-13.29,2.15-21.16,2.27-.86,0-2.92-1.8-2.92-1.8s-1.91,1.79-3,1.76c-5.21-.17-9.35-.7-10.29-1.64-2-4.88-3.16-17.61,2.71-29.6.18-6.89-1.05-14.52-1-21.9A10.32,10.32,0,0,1,360.23,205.67Z" style="fill: rgb(64, 123, 255); transform-origin: 369.608px 236.476px;" id="elpy1okw2m349" class="animable"></path><path d="M388.41,264.16c-21.1,4.88-35.24,2.17-38.4,1.42l-.35,4.11a69.9,69.9,0,0,0,14.91,1.42,109.76,109.76,0,0,0,24.18-2.85Z" style="fill: rgb(38, 50, 56); transform-origin: 369.205px 267.638px;" id="eltx4l7r67c4c" class="animable"></path><g id="eln736mnjy2d"><path d="M388.41,264.16c-21.1,4.88-35.24,2.17-38.4,1.42l-.35,4.11a69.9,69.9,0,0,0,14.91,1.42,109.76,109.76,0,0,0,24.18-2.85Z" style="opacity: 0.5; transform-origin: 369.205px 267.638px;" class="animable"></path></g><rect x="360.04" y="266.4" width="8.38" height="5.15" style="fill: rgb(38, 50, 56); transform-origin: 364.23px 268.975px;" id="elgceoamppaq9" class="animable"></rect><g id="elpfq0m6i55lq"><rect x="360.04" y="266.4" width="8.38" height="5.15" style="fill: rgb(255, 255, 255); opacity: 0.6; transform-origin: 364.23px 268.975px;" class="animable"></rect></g><g id="elkpz7okrdpr"><rect x="380.17" y="265.26" width="2.5" height="4.86" style="fill: rgb(38, 50, 56); transform-origin: 381.42px 267.69px; transform: rotate(-9.05deg);" class="animable"></rect></g><g id="elcroqfolqen"><rect x="352.82" y="266.02" width="2.5" height="4.86" style="fill: rgb(38, 50, 56); transform-origin: 354.07px 268.45px; transform: rotate(6.14deg);" class="animable"></rect></g><path d="M384.32,270.46h-.77a2,2,0,1,0-4,0h-.77a2.78,2.78,0,1,1,5.55,0Z" style="fill: rgb(38, 50, 56); transform-origin: 381.555px 268.987px;" id="elot0c8dcmi2" class="animable"></path><g id="el7zrj756vc1l"><g style="opacity: 0.7; transform-origin: 381.555px 268.987px;" class="animable"><path d="M384.32,270.46h-.77a2,2,0,1,0-4,0h-.77a2.78,2.78,0,1,1,5.55,0Z" style="fill: rgb(255, 255, 255); transform-origin: 381.555px 268.987px;" id="elrhoriianfml" class="animable"></path></g></g><path d="M386,271.35l-.29-.83a1.06,1.06,0,0,0-1-.7h-1.81a1,1,0,0,0-1,.7l-.29.83a4.63,4.63,0,1,0,4.37,0Zm-2.19,7.16a3.1,3.1,0,1,1,3.1-3.1A3.1,3.1,0,0,1,383.78,278.51Z" style="fill: rgb(38, 50, 56); transform-origin: 383.795px 274.94px;" id="eltydcx712yxn" class="animable"></path><g id="el550mhggy1bo"><path d="M386,271.35l-.29-.83a1.06,1.06,0,0,0-1-.7h-1.81a1,1,0,0,0-1,.7l-.29.83a4.63,4.63,0,1,0,4.37,0Zm-2.19,7.16a3.1,3.1,0,1,1,3.1-3.1A3.1,3.1,0,0,1,383.78,278.51Z" style="fill: rgb(255, 255, 255); opacity: 0.5; transform-origin: 383.795px 274.94px;" class="animable"></path></g><path d="M382.21,271.35l-.29-.83a1.06,1.06,0,0,0-1-.7h-1.81a1.06,1.06,0,0,0-1,.7l-.28.83a4.63,4.63,0,1,0,4.37,0ZM380,278.51a3.1,3.1,0,1,1,3.1-3.1A3.1,3.1,0,0,1,380,278.51Z" style="fill: rgb(38, 50, 56); transform-origin: 380.015px 274.941px;" id="elqup2wrhcogr" class="animable"></path><g id="elp230tzvb35"><path d="M382.21,271.35l-.29-.83a1.06,1.06,0,0,0-1-.7h-1.81a1.06,1.06,0,0,0-1,.7l-.28.83a4.63,4.63,0,1,0,4.37,0ZM380,278.51a3.1,3.1,0,1,1,3.1-3.1A3.1,3.1,0,0,1,380,278.51Z" style="fill: rgb(255, 255, 255); opacity: 0.7; transform-origin: 380.015px 274.941px;" class="animable"></path></g><g id="el5dhiuwv3td3"><rect x="333.29" y="276.96" width="33.31" height="3.02" rx="1.21" style="fill: rgb(255, 255, 255); transform-origin: 349.945px 278.47px; transform: rotate(-67.5deg);" class="animable"></rect></g><path d="M349.4,273.47l-6.13-2.55a1.21,1.21,0,0,1-.66-1.58h0a1.22,1.22,0,0,1,1.58-.65l6.14,2.54a1.21,1.21,0,0,1,.65,1.58h0A1.21,1.21,0,0,1,349.4,273.47Z" style="fill: rgb(255, 255, 255); transform-origin: 346.796px 271.081px;" id="elqy6vzniio99" class="animable"></path><g id="elfkreh1zsgqh"><g style="opacity: 0.5; transform-origin: 349.945px 278.47px;" class="animable"><g id="elidit8cde43e"><rect x="333.29" y="276.96" width="33.31" height="3.02" rx="1.21" class="animable" style="transform-origin: 349.945px 278.47px; transform: rotate(-67.5deg);"></rect></g><path d="M349.4,273.47l-6.13-2.55a1.21,1.21,0,0,1-.66-1.58h0a1.22,1.22,0,0,1,1.58-.65l6.14,2.54a1.21,1.21,0,0,1,.65,1.58h0A1.21,1.21,0,0,1,349.4,273.47Z" id="el7rllgxq7t8t" class="animable" style="transform-origin: 346.796px 271.081px;"></path></g></g><path d="M368.07,206.35a23.86,23.86,0,0,0,8.31-1.62l2.47-.93a32.17,32.17,0,0,1-2.52-13.35l-9.19,8.38c1,1.66.84,4.41-2.62,6.46-.07,0-.13.1-.2.15C364.84,206,365.91,206.41,368.07,206.35Z" style="fill: rgb(255, 139, 123); transform-origin: 371.585px 198.403px;" id="el05aka14kqnan" class="animable"></path><path d="M365.25,204.28s-.66,1.73,3.34,1.54,10.46-2.93,10.46-2.93l1.5,1.59s-4.1,5.24-10.05,5.33l-2.82-3-4.42,3s-2.86-.58.35-5.08Z" style="fill: rgb(64, 123, 255); transform-origin: 371.318px 206.35px;" id="elrrqyy9lkhyg" class="animable"></path><g id="elejicctletki"><path d="M365.25,204.28s-.66,1.73,3.34,1.54,10.46-2.93,10.46-2.93l1.5,1.59s-4.1,5.24-10.05,5.33l-2.82-3-4.42,3s-2.86-.58.35-5.08Z" style="opacity: 0.2; transform-origin: 371.318px 206.35px;" class="animable"></path></g><g id="elx3269i98lz"><path d="M367.13,210.91a161.75,161.75,0,0,0-.91,26.25s-4.45,12-3.91,23.18c0,0-4.68-6.12,2.51-23.31C364.82,237,363.27,214.61,367.13,210.91Z" style="opacity: 0.2; transform-origin: 363.972px 235.625px;" class="animable"></path></g><g id="elveen7nw0nt7"><path d="M390.38,228.06c-.11-3.92-.33-7.33-.6-10.24-2.08-1.59-3.77-2.69-3.77-2.69l-4-2.61-1.48,3.79S385.43,224.66,390.38,228.06Z" style="opacity: 0.2; transform-origin: 385.455px 220.29px;" class="animable"></path></g><path d="M382.43,209.35a5,5,0,0,1,6.78-2c1.17.64,2.15,1.21,3.18,1.86s2,1.29,3,2c2,1.34,3.9,2.78,5.78,4.32a61.62,61.62,0,0,1,5.4,5,38.81,38.81,0,0,1,4.79,6c.37.56.71,1.14,1,1.74.06.1.21.4.34.65a8.09,8.09,0,0,1,.33.81,8.45,8.45,0,0,1,.42,1.7,10,10,0,0,1-1,5.73,21.59,21.59,0,0,1-5.2,6.47,52.87,52.87,0,0,1-12.15,7.83,2.49,2.49,0,0,1-2.69-4.14l.09-.08a81,81,0,0,0,9.29-9,15.58,15.58,0,0,0,2.83-4.47c.21-.62.11-1,.07-.91l0,0s0,0,0,0,0,0-.07-.09c-.26-.38-.52-.76-.81-1.14a47.8,47.8,0,0,0-8.84-8.42c-1.68-1.3-3.44-2.54-5.22-3.75-.89-.61-1.8-1.2-2.71-1.77s-1.86-1.16-2.67-1.64l-.1-.06A5,5,0,0,1,382.43,209.35Z" style="fill: rgb(255, 139, 123); transform-origin: 397.683px 229.222px;" id="ela40addbd9t8" class="animable"></path><path d="M381.86,205.08c6.84-2.15,20,9.38,20,9.38l-5.28,12.11a24.94,24.94,0,0,1-11.47-5.16C378.77,216,374.92,207.27,381.86,205.08Z" style="fill: rgb(64, 123, 255); transform-origin: 390.013px 215.691px;" id="elecvgj0jauhl" class="animable"></path><path d="M395.11,245.5l-5.76,2.73,4.44,6.14s5-3.15,4-6.21Z" style="fill: rgb(255, 139, 123); transform-origin: 393.636px 249.935px;" id="ela9axwjqsgw" class="animable"></path><path d="M386.67,254.72l1.9,1.85a2,2,0,0,0,2.76,0l2.46-2.19-4.44-6.14-2.73,3.18A2.45,2.45,0,0,0,386.67,254.72Z" style="fill: rgb(255, 139, 123); transform-origin: 389.898px 252.681px;" id="elpybemuwwkln" class="animable"></path><g id="elvle2kibitq"><polygon points="354.07 224.03 362.31 224.03 362.09 225.56 357.13 227.18 354.07 225.56 354.07 224.03" style="opacity: 0.2; transform-origin: 358.19px 225.605px;" class="animable"></polygon></g><g id="elwmb09knlarq"><polygon points="369.23 224.03 380 224.03 379.71 225.56 374.57 227.18 369.23 225.56 369.23 224.03" style="opacity: 0.2; transform-origin: 374.615px 225.605px;" class="animable"></polygon></g><g id="elbv1xi1nkjkp"><path d="M376.33,190.45l-9.2,8.38a3.9,3.9,0,0,1,.2,3.52,7.72,7.72,0,0,0,5.29-1.9c2.37-2,3.17-4.39,3.76-7.75C376.34,192,376.33,191.24,376.33,190.45Z" style="opacity: 0.2; transform-origin: 371.755px 196.401px;" class="animable"></path></g><path d="M379.07,186.12c-.41,6.18.47,7.17-2.67,10.3-4.72,4.7-12.4,5.6-13.49-.66-1-5.63-1.52-15.84,4.55-18.22A8.53,8.53,0,0,1,379.07,186.12Z" style="fill: rgb(255, 139, 123); transform-origin: 370.695px 188.578px;" id="eloaz0sp7i0e" class="animable"></path><path d="M378.68,190.3c-2.2,2.09-3.66-1.6-3.54-1.93.53-1.44.31-2.54-1-4.86s1.71-6,5.18-5.54c3.19.44,1.59,3.6,2.34,5.7C383,187.41,380.45,188.61,378.68,190.3Z" style="fill: rgb(38, 50, 56); transform-origin: 377.931px 184.434px;" id="elkhx6iuaexe" class="animable"></path><path d="M364.77,193.65a38.64,38.64,0,0,1,6.61-1.14c-.46,1.42-1.43,2.65-3.94,2.92S364.77,193.65,364.77,193.65Z" style="fill: rgb(255, 255, 255); transform-origin: 368.075px 193.982px;" id="el3g6r5oo20dc" class="animable"></path><path d="M381.87,190.26a5.6,5.6,0,0,1-2.85,3c-1.65.71-2.56-.91-2.17-2.76.35-1.66,1.63-4,3.33-4S382.57,188.57,381.87,190.26Z" style="fill: rgb(255, 139, 123); transform-origin: 379.451px 189.965px;" id="elqxio7rnl4pt" class="animable"></path><path d="M370.58,186.72c0,.53-.27.57-.61.56s-.66-.1-.64-.62.32-.94.66-.92S370.6,186.2,370.58,186.72Z" style="fill: rgb(38, 50, 56); transform-origin: 369.955px 186.51px;" id="elbk64iozyvlr" class="animable"></path><path d="M365.15,187.1c0,.53-.26.57-.6.56s-.67-.1-.64-.62.32-.94.66-.92S365.18,186.57,365.15,187.1Z" style="fill: rgb(38, 50, 56); transform-origin: 364.53px 186.89px;" id="elr5f35mcg9j" class="animable"></path><path d="M366.15,186.87a14.5,14.5,0,0,1-1.87,3.48,2.34,2.34,0,0,0,1.94.34Z" style="fill: rgb(255, 86, 82); transform-origin: 365.25px 188.82px;" id="elmur933jgil" class="animable"></path><path d="M371.56,184.36a.27.27,0,0,0,.14-.07.3.3,0,0,0,0-.44,3.13,3.13,0,0,0-2.63-1.07.31.31,0,0,0,.1.61h0a2.48,2.48,0,0,1,2.07.88A.34.34,0,0,0,371.56,184.36Z" style="fill: rgb(38, 50, 56); transform-origin: 370.315px 183.569px;" id="elmgz1hvh4vkg" class="animable"></path><path d="M362,186.08a.32.32,0,0,0,.27-.1,2.44,2.44,0,0,1,2.08-.81.31.31,0,0,0,.35-.26.3.3,0,0,0-.25-.35,3,3,0,0,0-2.63,1,.31.31,0,0,0,0,.44A.38.38,0,0,0,362,186.08Z" style="fill: rgb(38, 50, 56); transform-origin: 363.217px 185.309px;" id="el26bn417n60t" class="animable"></path><path d="M366.22,192s-1.37-1.13-3,.51-2.25.92-2.25.92.39,1.43,2.62.93A3.32,3.32,0,0,0,366.22,192Z" style="fill: rgb(38, 50, 56); transform-origin: 363.595px 193.043px;" id="elslwhsr1fqpb" class="animable"></path><path d="M366.52,191.89s1-1.69,3.26-.61,2.67.09,2.67.09.15,1.61-2.34,1.94A3.65,3.65,0,0,1,366.52,191.89Z" style="fill: rgb(38, 50, 56); transform-origin: 369.486px 192.144px;" id="el0ylaik51udtc" class="animable"></path><path d="M366.22,196.22a1.4,1.4,0,0,1,1.85.18,2.11,2.11,0,0,1,2.2-1c1.41.35.3,4.81-.32,3.58,0,0-1.76,2.74-2.05.8,0,0-1.65,1.28-1.38-.59A5.51,5.51,0,0,0,366.22,196.22Z" style="fill: rgb(38, 50, 56); transform-origin: 368.587px 197.92px;" id="el3i4qjbnkv5b" class="animable"></path><path d="M380,178.75a6.12,6.12,0,0,0-6.51-5.16c-4.83.22-8.89,2.75-11.57,2.65a.92.92,0,0,0-.85,1.29c.48,1.11,1.36,2.27,2.86,1.73a2.59,2.59,0,0,1-2.64,1s2.82,2.14,8.06,0c2.18-.89,3.57-.64,4.46-.05a3.86,3.86,0,0,0,4.57-.15Z" style="fill: rgb(38, 50, 56); transform-origin: 370.496px 177.392px;" id="elpbedy9gby6" class="animable"></path><path d="M374.18,216.77a2.43,2.43,0,0,1-3.57,0,6,6,0,0,0,3.57,5.48,6,6,0,0,0,3.57-5.48A2.43,2.43,0,0,1,374.18,216.77Z" style="fill: rgb(64, 123, 255); transform-origin: 374.18px 219.51px;" id="elsk8wweb7yf" class="animable"></path><g id="eltd55ld9xfkf"><path d="M374.18,216.77a2.43,2.43,0,0,1-3.57,0,6,6,0,0,0,3.57,5.48,6,6,0,0,0,3.57-5.48A2.43,2.43,0,0,1,374.18,216.77Z" style="fill: rgb(255, 255, 255); opacity: 0.4; transform-origin: 374.18px 219.51px;" class="animable"></path></g><g id="eltk8n6rctz7d"><path d="M370.61,216.77a2.43,2.43,0,0,0,3.57,0v5.48A6,6,0,0,1,370.61,216.77Z" style="fill: rgb(255, 255, 255); opacity: 0.2; transform-origin: 372.395px 219.51px;" class="animable"></path></g><path d="M381.64,204.56l-2.05,1.79s4.74-1.25,7.63,1.13l2.12-2S386.9,204.4,381.64,204.56Z" style="fill: rgb(64, 123, 255); transform-origin: 384.465px 206.012px;" id="el5qb2zyptbk7" class="animable"></path><g id="elhfdacdwg7tm"><path d="M381.64,204.56l-2.05,1.79s4.74-1.25,7.63,1.13l2.12-2S386.9,204.4,381.64,204.56Z" style="opacity: 0.4; transform-origin: 384.465px 206.012px;" class="animable"></path></g><path d="M362.84,204.81,362,206a10.33,10.33,0,0,0-7.57.84l2-2S361.37,204.19,362.84,204.81Z" style="fill: rgb(64, 123, 255); transform-origin: 358.635px 205.691px;" id="el14rl9dqvtch" class="animable"></path><g id="elw5g0dyv568c"><path d="M362.84,204.81,362,206a10.33,10.33,0,0,0-7.57.84l2-2S361.37,204.19,362.84,204.81Z" style="opacity: 0.4; transform-origin: 358.635px 205.691px;" class="animable"></path></g><polygon points="313.69 205.34 309.44 202.24 313.69 197.16 322.89 192.4 330.38 195.97 336.51 203.12 332.09 205.34 313.69 205.34" style="fill: rgb(64, 123, 255); transform-origin: 322.975px 198.87px;" id="elotqbnwxi0k" class="animable"></polygon><g id="elqnyslcdlz3"><polygon points="313.69 205.34 309.44 202.24 313.69 197.16 322.89 192.4 330.38 195.97 336.51 203.12 332.09 205.34 313.69 205.34" style="opacity: 0.5; transform-origin: 322.975px 198.87px;" class="animable"></polygon></g><path d="M313.69,205.34s8.86-7,18.4,0C332.09,205.34,324.25,210.45,313.69,205.34Z" style="fill: rgb(64, 123, 255); transform-origin: 322.89px 204.92px;" id="elftxgkvuc78h" class="animable"></path><g id="eln6lo8sgvaw"><path d="M313.69,205.34s8.86-7,18.4,0C332.09,205.34,324.25,210.45,313.69,205.34Z" style="opacity: 0.3; transform-origin: 322.89px 204.92px;" class="animable"></path></g><path d="M323,196.42a2.18,2.18,0,0,1-3.19,0,5.33,5.33,0,0,0,3.19,4.89,5.33,5.33,0,0,0,3.18-4.89A2.17,2.17,0,0,1,323,196.42Z" style="fill: rgb(64, 123, 255); transform-origin: 322.995px 198.865px;" id="elgp0hn989sd8" class="animable"></path><g id="elqzhkc4tsmo"><path d="M323,196.42a2.18,2.18,0,0,1-3.19,0,5.33,5.33,0,0,0,3.19,4.89,5.33,5.33,0,0,0,3.18-4.89A2.17,2.17,0,0,1,323,196.42Z" style="fill: rgb(255, 255, 255); opacity: 0.4; transform-origin: 322.995px 198.865px;" class="animable"></path></g><g id="elbeissh2bdlh"><path d="M319.79,196.42a2.18,2.18,0,0,0,3.19,0v4.89A5.33,5.33,0,0,1,319.79,196.42Z" style="fill: rgb(255, 255, 255); opacity: 0.2; transform-origin: 321.385px 198.865px;" class="animable"></path></g></g><defs>     <filter id="active" height="200%">         <feMorphology in="SourceAlpha" result="DILATED" operator="dilate" radius="2"></feMorphology>                <feFlood flood-color="#32DFEC" flood-opacity="1" result="PINK"></feFlood>        <feComposite in="PINK" in2="DILATED" operator="in" result="OUTLINE"></feComposite>        <feMerge>            <feMergeNode in="OUTLINE"></feMergeNode>            <feMergeNode in="SourceGraphic"></feMergeNode>        </feMerge>    </filter>    <filter id="hover" height="200%">        <feMorphology in="SourceAlpha" result="DILATED" operator="dilate" radius="2"></feMorphology>                <feFlood flood-color="#ff0000" flood-opacity="0.5" result="PINK"></feFlood>        <feComposite in="PINK" in2="DILATED" operator="in" result="OUTLINE"></feComposite>        <feMerge>            <feMergeNode in="OUTLINE"></feMergeNode>            <feMergeNode in="SourceGraphic"></feMergeNode>        </feMerge>            <feColorMatrix type="matrix" values="0   0   0   0   0                0   1   0   0   0                0   0   0   0   0                0   0   0   1   0 "></feColorMatrix>    </filter></defs></svg>